<svg width="760" height="600" viewBox="0 0 760 600" fill="none" xmlns="http://www.w3.org/2000/svg">
  <defs>
    <linearGradient id="gradBG" x1="0" y1="0" x2="760" y2="600" gradientUnits="userSpaceOnUse">
      <stop stop-color="#f5f7ff"/>
      <stop offset="1" stop-color="#eef4ff"/>
    </linearGradient>
    <linearGradient id="orb" x1="0" y1="0" x2="1" y2="1">
      <stop stop-color="#6366f1"/>
      <stop offset="1" stop-color="#3b82f6"/>
    </linearGradient>
    <filter id="blurLg" x="-40%" y="-40%" width="180%" height="180%" color-interpolation-filters="sRGB">
      <feGaussianBlur stdDeviation="80"/>
    </filter>
    <filter id="blurSm" x="-50%" y="-50%" width="200%" height="200%" color-interpolation-filters="sRGB">
      <feGaussianBlur stdDeviation="18"/>
    </filter>
  </defs>
  <rect width="760" height="600" rx="32" fill="url(#gradBG)"/>
  <g filter="url(#blurLg)" opacity="0.55">
    <circle cx="620" cy="140" r="130" fill="url(#orb)"/>
    <circle cx="200" cy="470" r="160" fill="url(#orb)" fill-opacity="0.55"/>
  </g>
  <g filter="url(#blurSm)">
    <rect x="250" y="160" width="300" height="180" rx="60" fill="#1e293b" fill-opacity="0.55" />
  </g>
  <rect x="305" y="210" width="180" height="14" rx="7" fill="#334155" fill-opacity="0.25" />
  <rect x="305" y="232" width="130" height="12" rx="6" fill="#334155" fill-opacity="0.18" />
  <rect x="305" y="252" width="110" height="11" rx="5.5" fill="#334155" fill-opacity="0.12" />
  <rect x="305" y="274" width="74" height="30" rx="15" fill="url(#orb)" />
  <path d="M137 325c42-37 66-91 76-156 6-37 45-55 72-31 9 8 14 20 15 33 2 32 8 63 21 92 8 18 2 39-15 49l-170 98c-17 10-39 4-49-13-10-17-4-39 13-49l37-22Z" fill="#6366f1" fill-opacity="0.08"/>
  <circle cx="160" cy="170" r="14" fill="#6366f1" fill-opacity="0.55"/>
  <circle cx="560" cy="430" r="10" fill="#6366f1" fill-opacity="0.3"/>
  <circle cx="520" cy="470" r="6" fill="#6366f1" fill-opacity="0.3"/>
  <circle cx="185" cy="410" r="8" fill="#6366f1" fill-opacity="0.35"/>
</svg><svg width="800" height="600" viewBox="0 0 800 600" fill="none" xmlns="http://www.w3.org/2000/svg">
	<defs>
		<linearGradient id="bgGrad" x1="0" y1="0" x2="800" y2="600" gradientUnits="userSpaceOnUse">
			<stop offset="0%" stop-color="#1e3a8a"/>
			<stop offset="55%" stop-color="#2563eb"/>
			<stop offset="100%" stop-color="#0ea5e9"/>
		</linearGradient>
		<linearGradient id="orb" x1="0" y1="0" x2="1" y2="1">
			<stop offset="0%" stop-color="#38bdf8"/>
			<stop offset="100%" stop-color="#6366f1"/>
		</linearGradient>
		<radialGradient id="soft" cx="50%" cy="50%" r="50%">
			<stop offset="0%" stop-color="#ffffff" stop-opacity="0.9"/>
			<stop offset="60%" stop-color="#ffffff" stop-opacity="0.15"/>
			<stop offset="100%" stop-color="#ffffff" stop-opacity="0"/>
		</radialGradient>
		<filter id="blurLg" x="-20%" y="-20%" width="140%" height="140%" color-interpolation-filters="sRGB">
			<feGaussianBlur stdDeviation="60" />
		</filter>
		<filter id="blurSm" x="-50%" y="-50%" width="200%" height="200%" color-interpolation-filters="sRGB">
			<feGaussianBlur stdDeviation="18" />
		</filter>
		<linearGradient id="strokeGrad" x1="0" y1="0" x2="0" y2="1">
			<stop offset="0%" stop-color="#ffffff" stop-opacity="0.35"/>
			<stop offset="100%" stop-color="#ffffff" stop-opacity="0.05"/>
		</linearGradient>
		<pattern id="grid" width="64" height="64" patternUnits="userSpaceOnUse">
			<path d="M64 0H0V64" stroke="url(#strokeGrad)" stroke-width="1" />
		</pattern>
	</defs>

	<!-- Base gradient backdrop with subtle grid overlay -->
	<rect width="800" height="600" rx="40" fill="url(#bgGrad)" />
	<rect width="800" height="600" rx="40" fill="url(#soft)" />
	<rect width="800" height="600" rx="40" fill="url(#grid)" opacity="0.15" />

	<!-- Glow blobs -->
	<g filter="url(#blurLg)" opacity="0.55">
		<circle cx="640" cy="150" r="130" fill="url(#orb)" />
		<circle cx="210" cy="470" r="160" fill="url(#orb)" fill-opacity="0.55" />
	</g>

	<!-- Floating panel silhouette -->
	<g filter="url(#blurSm)">
		<rect x="250" y="150" width="300" height="180" rx="60" fill="#0f172a" fill-opacity="0.55" />
	</g>

	<!-- Accent bars representing form placeholders -->
	<rect x="305" y="200" width="180" height="14" rx="7" fill="#ffffff" fill-opacity="0.85" />
	<rect x="305" y="222" width="130" height="12" rx="6" fill="#ffffff" fill-opacity="0.50" />
	<rect x="305" y="242" width="110" height="11" rx="5.5" fill="#ffffff" fill-opacity="0.35" />
	<rect x="305" y="264" width="74" height="30" rx="15" fill="url(#orb)" />

	<!-- No embedded brand text (removed per design request) -->
</svg>
